<svg xmlns="http://www.w3.org/2000/svg" width="47" height="47" viewBox="0 0 47 47">
  <g id="Group_6123" data-name="Group 6123" transform="translate(-336 -1037)">
    <g id="Group_3005" data-name="Group 3005" transform="translate(336.211 1036.942)">
      <circle id="Ellipse_371" data-name="Ellipse 371" cx="23.5" cy="23.5" r="23.5" transform="translate(-0.211 0.058)" fill="#d1e7ff"/>
    </g>
    <g id="Group_5848" data-name="Group 5848" transform="translate(346.473 1044.084)">
      <path id="Path_5318" data-name="Path 5318" d="M5211-868.568a1.327,1.327,0,0,0,0-.71.9.9,0,0,0,0-.563,1.367,1.367,0,0,0,0-.71.9.9,0,0,0,0-.563,1.327,1.327,0,0,0,0-.71,1.431,1.431,0,0,0,0-.7.95.95,0,0,0,0-.569,1.454,1.454,0,0,0,0-.7,1.378,1.378,0,0,0,0-.71.914.914,0,0,0,0-.562,1.414,1.414,0,0,0,.006-.711.822.822,0,0,0,0-.562l.031-.7a5.148,5.148,0,0,1,1.231-2.69l1.427-.8a5.734,5.734,0,0,1,1.795-.208c.215,0,.541.144.576-.272-.016-.336.109-.694-.155-.991.058-.138.23-.236.142-.423l.149-.568.047-.7a.885.885,0,0,0,.092-.575l.108-.393a11.755,11.755,0,0,1,1.188-2.841c.187-.242.372-.484.56-.725l.7-.709a6.336,6.336,0,0,0,1.43-1.093c.189-.042.4,0,.554-.169.523-.325,1.172-.25,1.71-.533l.267-.051.71-.012.564-.1.7.013a1.384,1.384,0,0,0,.708.087l.411.064,1.431.388.432.191.982.508.423.286,1.53,1.481a.65.65,0,0,0,.28.372,14.859,14.859,0,0,1,1.162,2.536c-.065.306.119.563.162.848-.015.151-.047.306.076.434q.032.983.063,1.966c-.082.993-.082.994.895.976a2.082,2.082,0,0,0,.208-.024l.284.018.827.242.847.42.466.346.966,1.28.39,1.428c.008.183.017.365.025.548a1.379,1.379,0,0,0,0,.71,1.455,1.455,0,0,0,0,.7.942.942,0,0,0,0,.569,1.455,1.455,0,0,0,0,.7,1.356,1.356,0,0,0,0,.71.924.924,0,0,0,0,.563,1.356,1.356,0,0,0,0,.71,1.491,1.491,0,0,0,0,.7.966.966,0,0,0,0,.569,1.454,1.454,0,0,0,0,.7.958.958,0,0,0,0,.569,1.478,1.478,0,0,0,0,.7,1.356,1.356,0,0,0,0,.71.924.924,0,0,0,0,.563,1.356,1.356,0,0,0,0,.71,1.455,1.455,0,0,0,0,.7.959.959,0,0,0,0,.569,1.429,1.429,0,0,0,0,.7q-.044.353-.087.707c-.71,2.3-1.905,3.208-4.329,3.353-1.263.076-2.521.047-3.783.015-.557-.014-1.118.057-1.679.021a1.448,1.448,0,0,0-.707,0h-3.25a1.457,1.457,0,0,0-.708,0h-3.25a1.389,1.389,0,0,0-.707,0c-1.238,0-2.478.018-3.717,0a3.947,3.947,0,0,1-2.875-1.127l-.276-.3c-.474-.839-1.161-1.6-1.032-2.668a1.325,1.325,0,0,0,0-.709.921.921,0,0,0,0-.562,1.4,1.4,0,0,0,0-.71,1.407,1.407,0,0,0,0-.7.982.982,0,0,0,0-.569A1.419,1.419,0,0,0,5211-868.568Zm15.387-12.234.431-.006.7,0a.935.935,0,0,0,.574,0l.414-.006a2.844,2.844,0,0,0,1.142,0l.415,0c.185.043.256-.02.192-.208.007-.242.012-.485.019-.728l0-.373a2.04,2.04,0,0,0-.025-.883,1.245,1.245,0,0,0-.07-.72.757.757,0,0,0-.129-.544,5.374,5.374,0,0,0-3.083-3.824,1.707,1.707,0,0,0-.845-.322,1.081,1.081,0,0,0-.572-.131c-.418-.256-.844,0-1.265-.017-.112-.209-.217-.177-.313.012-.32.144-.661-.284-.976.032-.15.024-.335-.067-.432.131-.145.034-.339-.079-.422.142a.732.732,0,0,0-.557.187,1.4,1.4,0,0,0-.628.378,1.962,1.962,0,0,0-.715.574,6.157,6.157,0,0,0-1.8,3.415c-.189.785.124,1.532-.091,2.295-.165.582.156.747.689.581l.56,0a1.258,1.258,0,0,0,.716,0h.414a1.732,1.732,0,0,0,.856.006h.7a.9.9,0,0,0,.574,0l.839.007.417,0,.57-.006a1.744,1.744,0,0,0,.86.006l.553,0,.162.007.063.025Zm-2.259,18.043c.26.136.315-.077.405-.235-.021.085.013.117.1.1.025.112.081.178.208.137a.9.9,0,0,0,.562,0c.471-.156.943.168,1.414,0a1.392,1.392,0,0,0,.707,0,1.481,1.481,0,0,0,.705,0h.567a1.4,1.4,0,0,0,.705,0h.567a1.383,1.383,0,0,0,.705,0l.566.005a2,2,0,0,0,.847,0,.888.888,0,0,0,.567,0,1.883,1.883,0,0,0,1.843-.584.582.582,0,0,0,.3-.418,1.543,1.543,0,0,0,0-1.9l.016-.2-.008,0c.218-.085.154-.157-.011-.224l-.015-.518.041-.4c.112.018.243.027.266-.11.034-.211-.137-.3-.292-.38l.025-.226c.084.007.12-.032.114-.115.463-.436-.067-.773-.117-1.158.418-.227.322-.431-.025-.625a.088.088,0,0,0,.024-.078c.256.039.315-.079.242-.3v-.424c.1-.264-.083-.367-.267-.469a.082.082,0,0,0,.024-.076c.112.007.245.036.265-.122.022-.187-.117-.272-.265-.339a1.242,1.242,0,0,0,0-1.523c.412-.225.323-.43-.027-.623.48-.14.278-.5.266-.806.1-.261-.084-.365-.267-.466a.094.094,0,0,0,.024-.08c.251.036.315-.078.241-.3.2-.431-.138-.746-.237-1.112l.1-.117-.1-.058c-.052-.424.354-.911-.177-1.269a.691.691,0,0,0-.71-.572c-.041-.136-.15-.158-.271-.16-.211-.159-.453-.093-.683-.094q-4.342-.01-8.681-.008c-3.15.005-6.3.022-9.452.034a.97.97,0,0,0-.707.241,1.673,1.673,0,0,0-.9,2.141,7.193,7.193,0,0,0,.047,2.812c-.08.141-.358.26-.051.445l.046.262c-.037.1-.213.13-.144.283v.564c-.038.122.029.174.135.2l.009.226c-.191.143-.182.285,0,.424a1.816,1.816,0,0,0,0,1.556c-.186.14-.2.281,0,.424l-.011.368c-.1.025-.171.077-.133.2V-868c-.036.122-.088.249.1.3l.052.4a11.734,11.734,0,0,0-.136,2.687,1.3,1.3,0,0,0,.381,1.106.524.524,0,0,0,.317.323,1.232,1.232,0,0,0,1,.4,1.164,1.164,0,0,0,.706.022,1.4,1.4,0,0,0,.706,0h.567a1.347,1.347,0,0,0,.7,0l.568,0a1.42,1.42,0,0,0,.705,0,1.4,1.4,0,0,0,.708,0,4.792,4.792,0,0,0,1.413,0c.254-.039.637.319.726-.234.173.1.271.375.547.236a.917.917,0,0,0,.563,0,1.458,1.458,0,0,0,.709,0A.926.926,0,0,0,5224.129-862.758Z" transform="translate(-5210.983 890.897)" fill="#0a0b0a"/>
      <path id="Path_5319" data-name="Path 5319" d="M5292.652-772.847c-.008.75-.006,1.5-.027,2.248a1.066,1.066,0,0,1-1.058,1.147,1.071,1.071,0,0,1-1.085-1.189c-.011-.867-.008-1.734-.012-2.6,0-.249.083-.532-.243-.663l-.281-.259-.427-.709q-.035-.259-.071-.517l.032-.569a2.372,2.372,0,0,1,2.177-1.76c.692-.14,1.839,1,1.953,1.861a2.279,2.279,0,0,1-.609,1.866l-.128.1c-.309.121-.245.375-.221.615Z" transform="translate(-5278.333 793.763)" fill="#0a0b0a"/>
    </g>
  </g>
</svg>
